<svg xmlns="http://www.w3.org/2000/svg" xmlns:xlink="http://www.w3.org/1999/xlink" width="590" zoomAndPan="magnify" viewBox="0 0 442.5 149.999998" height="200" preserveAspectRatio="xMidYMid meet" version="1.0"><defs><g/><clipPath id="1503d0ed5a"><path d="M 34 23.683594 L 143 23.683594 L 143 126.398438 L 34 126.398438 Z M 34 23.683594 " clip-rule="nonzero"/></clipPath></defs><g clip-path="url(#1503d0ed5a)"><path fill="#ffffff" d="M 54.851562 84.355469 L 48.78125 114.738281 L 100.128906 114.167969 L 100.160156 114.167969 C 109.703125 114.167969 117.691406 111.066406 123.054688 106.488281 C 125.917969 104.027344 127.976562 101.164062 129.019531 98.164062 C 129.996094 95.371094 130.066406 92.4375 129.085938 89.644531 C 127.738281 85.769531 124.367188 81.894531 118.570312 78.558594 L 109.164062 73.167969 L 118.90625 68.417969 C 124.636719 65.625 128.480469 61.277344 130.132812 56.628906 C 131.109375 53.898438 131.347656 51.070312 130.738281 48.441406 C 130.167969 45.882812 128.785156 43.421875 126.523438 41.367188 C 122.511719 37.695312 115.839844 35.238281 106.027344 35.238281 L 64.695312 35.238281 L 62.402344 46.824219 L 60.886719 54.539062 L 49.152344 54.539062 L 55.222656 23.714844 L 106.027344 23.714844 C 118.972656 23.714844 128.3125 27.386719 134.3125 32.914062 C 138.359375 36.617188 140.851562 41.132812 141.933594 45.984375 C 143.011719 50.765625 142.640625 55.753906 140.953125 60.46875 C 139.203125 65.386719 136.03125 70.035156 131.515625 73.84375 C 135.660156 77.550781 138.390625 81.660156 139.875 85.902344 C 141.761719 91.292969 141.628906 96.785156 139.875 101.9375 C 138.191406 106.855469 134.953125 111.472656 130.503906 115.246094 C 123.253906 121.476562 112.601562 125.621094 100.160156 125.65625 L 41.738281 126.296875 L 34.65625 126.363281 L 36.039062 119.421875 L 43.558594 82.128906 Z M 54.851562 84.355469 " fill-opacity="1" fill-rule="nonzero"/></g><path fill="#ffffff" d="M 80.472656 89.238281 L 79.429688 96.179688 L 90.855469 96.179688 C 94.363281 96.179688 96.519531 95.03125 97.296875 93.585938 C 97.5 93.214844 97.597656 92.84375 97.597656 92.507812 C 97.597656 92.203125 97.5 91.867188 97.328125 91.53125 C 96.621094 90.214844 94.53125 89.203125 90.855469 89.203125 L 80.472656 89.203125 Z M 69.113281 87.621094 L 0 77.71875 L 90.890625 77.71875 C 99.351562 77.71875 104.882812 81.355469 107.445312 86.039062 C 108.554688 88.09375 109.128906 90.351562 109.09375 92.609375 C 109.09375 94.863281 108.523438 97.085938 107.410156 99.109375 C 104.78125 103.925781 99.148438 107.734375 90.890625 107.734375 L 66.042969 107.734375 Z M 69.113281 87.621094 " fill-opacity="1" fill-rule="nonzero"/><path fill="#d9d9d9" d="M 80.472656 89.238281 L 69.113281 87.621094 L 68.234375 93.382812 Z M 80.472656 89.238281 " fill-opacity="1" fill-rule="evenodd"/><path fill="#ffffff" d="M 84.921875 52.382812 L 83.878906 59.324219 L 95.308594 59.324219 C 98.8125 59.324219 100.972656 58.179688 101.746094 56.730469 C 101.949219 56.359375 102.050781 55.988281 102.050781 55.652344 C 102.050781 55.347656 101.949219 55.011719 101.78125 54.675781 C 101.070312 53.359375 98.980469 52.351562 95.308594 52.351562 L 84.921875 52.351562 Z M 75.28125 40.863281 L 95.339844 40.863281 C 103.800781 40.863281 109.332031 44.5 111.894531 49.183594 C 113.007812 51.238281 113.578125 53.496094 113.546875 55.753906 C 113.546875 58.011719 112.972656 60.234375 111.859375 62.253906 C 109.230469 67.070312 103.601562 70.878906 95.339844 70.878906 L 70.492188 70.878906 Z M 75.28125 40.863281 " fill-opacity="1" fill-rule="nonzero"/><path fill="#ffffff" d="M 60.886719 54.539062 L 61.898438 43.019531 L 16.046875 54.539062 Z M 60.886719 54.539062 " fill-opacity="1" fill-rule="nonzero"/><g fill="#ffffff" fill-opacity="1"><g transform="translate(157.996979, 91.282025)"><g><path d="M -0.0898438 0 L 15.757812 0 C 22.328125 0 27.121094 -2.617188 28.453125 -9.367188 C 29.339844 -14.117188 26.945312 -16.335938 23.746094 -16.910156 L 23.746094 -17 C 26.542969 -17.886719 29.207031 -19.839844 30.007812 -23.746094 C 31.027344 -29.164062 28.054688 -31.738281 21.441406 -31.738281 L 6.035156 -31.738281 Z M 11.542969 -18.910156 L 12.785156 -25.210938 L 18.289062 -25.210938 C 20.507812 -25.210938 22.195312 -24.679688 21.660156 -22.0625 C 21.171875 -19.441406 19.265625 -18.910156 17.046875 -18.910156 Z M 9.144531 -6.523438 L 10.609375 -14.027344 L 16.335938 -14.027344 C 19.664062 -14.027344 21.21875 -13.273438 20.640625 -10.296875 C 20.0625 -7.324219 18.199219 -6.523438 14.871094 -6.523438 Z M 9.144531 -6.523438 "/></g></g></g><g fill="#ffffff" fill-opacity="1"><g transform="translate(187.422455, 91.282025)"><g><path d="M -0.0898438 0 L 24.234375 0 L 25.480469 -6.523438 L 9.144531 -6.523438 L 10.429688 -13.050781 L 24.28125 -13.050781 L 25.523438 -19.574219 L 11.675781 -19.574219 L 12.785156 -25.210938 L 28.851562 -25.210938 L 30.09375 -31.738281 L 6.035156 -31.738281 Z M -0.0898438 0 "/></g></g></g><g fill="#ffffff" fill-opacity="1"><g transform="translate(215.20579, 91.282025)"><g><path d="M 7.679688 0 L 15.667969 0 L 20.550781 -25.210938 L 29.742188 -25.210938 L 30.984375 -31.738281 L 4.570312 -31.738281 L 3.328125 -25.210938 L 12.5625 -25.210938 Z M 7.679688 0 "/></g></g></g><g fill="#ffffff" fill-opacity="1"><g transform="translate(242.900367, 91.282025)"><g><path d="M 0.753906 -8.167969 L 12.828125 -8.167969 L 13.984375 -14.25 L 1.910156 -14.25 Z M 0.753906 -8.167969 "/></g></g></g><g fill="#ffffff" fill-opacity="1"><g transform="translate(257.768443, 91.282025)"><g><path d="M -0.0898438 0 L 15.757812 0 C 22.328125 0 27.121094 -2.617188 28.453125 -9.367188 C 29.339844 -14.117188 26.945312 -16.335938 23.746094 -16.910156 L 23.746094 -17 C 26.542969 -17.886719 29.207031 -19.839844 30.007812 -23.746094 C 31.027344 -29.164062 28.054688 -31.738281 21.441406 -31.738281 L 6.035156 -31.738281 Z M 11.542969 -18.910156 L 12.785156 -25.210938 L 18.289062 -25.210938 C 20.507812 -25.210938 22.195312 -24.679688 21.660156 -22.0625 C 21.171875 -19.441406 19.265625 -18.910156 17.046875 -18.910156 Z M 9.144531 -6.523438 L 10.609375 -14.027344 L 16.335938 -14.027344 C 19.664062 -14.027344 21.21875 -13.273438 20.640625 -10.296875 C 20.0625 -7.324219 18.199219 -6.523438 14.871094 -6.523438 Z M 9.144531 -6.523438 "/></g></g></g><g fill="#ffffff" fill-opacity="1"><g transform="translate(287.193919, 91.282025)"><g><path d="M -0.0429688 0 L 7.945312 0 L 14.070312 -31.738281 L 6.082031 -31.738281 Z M -0.0429688 0 "/></g></g></g><g fill="#ffffff" fill-opacity="1"><g transform="translate(299.532203, 91.282025)"><g><path d="M 7.679688 0 L 15.667969 0 L 20.550781 -25.210938 L 29.742188 -25.210938 L 30.984375 -31.738281 L 4.570312 -31.738281 L 3.328125 -25.210938 L 12.5625 -25.210938 Z M 7.679688 0 "/></g></g></g><g fill="#ffffff" fill-opacity="1"><g transform="translate(327.22678, 91.282025)"><g><path d="M 13.714844 0.710938 C 22.417969 0.710938 28.054688 -4.4375 30.230469 -11.894531 L 22.238281 -11.894531 C 20.996094 -8.34375 18.910156 -5.816406 14.648438 -5.816406 C 9.367188 -5.816406 8.390625 -9.898438 9.542969 -15.890625 C 10.699219 -21.839844 13.273438 -25.921875 18.554688 -25.921875 C 22.769531 -25.921875 23.882812 -23.394531 23.792969 -19.929688 L 31.78125 -19.929688 C 32.449219 -27.300781 28.851562 -32.449219 20.195312 -32.449219 C 10.164062 -32.449219 3.417969 -25.433594 1.554688 -15.890625 C -0.3125 -6.304688 3.683594 0.710938 13.714844 0.710938 Z M 13.714844 0.710938 "/></g></g></g><g fill="#ffffff" fill-opacity="1"><g transform="translate(357.850583, 91.282025)"><g><path d="M 14.027344 0.710938 C 24.015625 0.710938 31.117188 -6.304688 32.980469 -15.890625 C 34.84375 -25.433594 30.496094 -32.449219 20.507812 -32.449219 C 10.429688 -32.449219 3.417969 -25.433594 1.554688 -15.890625 C -0.3125 -6.304688 3.949219 0.710938 14.027344 0.710938 Z M 15.3125 -5.816406 C 9.5 -5.816406 8.476562 -10.34375 9.542969 -15.890625 C 10.609375 -21.394531 13.40625 -25.921875 19.21875 -25.921875 C 24.992188 -25.921875 26.054688 -21.394531 24.992188 -15.890625 C 23.925781 -10.34375 21.085938 -5.816406 15.3125 -5.816406 Z M 15.3125 -5.816406 "/></g></g></g><g fill="#ffffff" fill-opacity="1"><g transform="translate(390.56034, 91.282025)"><g><path d="M -0.0429688 0 L 7.945312 0 L 14.070312 -31.738281 L 6.082031 -31.738281 Z M -0.0429688 0 "/></g></g></g><g fill="#ffffff" fill-opacity="1"><g transform="translate(402.898624, 91.282025)"><g><path d="M -0.0898438 0 L 7.902344 0 L 11.542969 -18.863281 L 11.628906 -18.863281 L 19.085938 0 L 27.078125 0 L 33.203125 -31.738281 L 25.210938 -31.738281 L 21.574219 -12.871094 L 21.484375 -12.871094 L 14.027344 -31.738281 L 6.035156 -31.738281 Z M -0.0898438 0 "/></g></g></g></svg>